<svg id="Capa_1" data-name="Capa 1" xmlns="http://www.w3.org/2000/svg" viewBox="0 0 416 242.86"><defs><style>.cls-1{fill:#691936;}</style></defs><title>nrdware-logo</title><path class="cls-1" d="M348.49,62.46h23.09a2.54,2.54,0,0,1,2.3,1.46l23.2,49.17a3.09,3.09,0,0,0,2.8,1.77h25.34l-28.78-52.4s-8.86-12.17-22.51-12.17H339.24L330.39,23h42.06s30.63,0,48.34,22.51,55.72,69.37,55.72,69.37,12.54,15,9.34,28.11c-2.48,10.17-7,12.59-15.53,13.76a20.75,20.75,0,0,1-2.84.2H360.28l-9.57-39.31a2.43,2.43,0,0,1,.87-2.49c2.85-2.24,9.16-9.25,3.9-25.17-4.82-14.58-7.3-22.47-8.31-25.71A1.38,1.38,0,0,1,348.49,62.46Z" transform="translate(-71.89 -21.18)"/><path class="cls-1" d="M345.22,117.81a.57.57,0,0,0-.42-.44c-2.85-.6-22.09-5.06-25.33-15.62a.55.55,0,0,1,.37-.68c2.68-.78,14.74-5.11,16.08-20.46v-.12c-.27-1.72-6.4-39.83-6.62-41.23,0,0,0,0,0-.08-.3-.9-5.61-16.2-20.65-16.2-14.14,0-75.85-1.53-86.6-1.8a2.38,2.38,0,0,0-2.25,1.42l-14,31.4a2.2,2.2,0,0,1-4.1-.2l-9.2-27.33a3.51,3.51,0,0,0-3.33-2.38H173a4.1,4.1,0,0,0-3.28,1.64L72,156.05a.55.55,0,0,0,.43.88h49.9a.55.55,0,0,0,.46-.24l39.63-59.44a.55.55,0,0,1,1,.22l8.22,59a.55.55,0,0,0,.54.47h41.52a.56.56,0,0,0,.54-.43L238.07,51.82a2.46,2.46,0,0,1,2.39-1.9h2a2.17,2.17,0,0,1,2.13,2.59L223.88,156.27a.55.55,0,0,0,.53.66h43.84a.55.55,0,0,0,.55-.51l3.62-49.28a.54.54,0,0,1,.42-.49c12.6-3.28,17,8.9,17,8.9s14.45,41,35.43,41.38h26.65a.55.55,0,0,0,.54-.65Zm-45.83-41a1.9,1.9,0,0,1-1.9,1.9H276.76a1.34,1.34,0,0,1-1.35-1.35V52.66a.9.9,0,0,1,.89-.9h19a4.11,4.11,0,0,1,4.11,4.11Z" transform="translate(-71.89 -21.18)"/><path class="cls-1" d="M487,167.63H381.09a1.26,1.26,0,0,0-1.19.83l-26.84,74.45a2.24,2.24,0,0,1-2.1,1.47h-3.23a1.93,1.93,0,0,1-1.86-1.42l-5.15-19.24c11.07-1.48,13.65-10.7,13.65-10.7l5.54-25.83c6.27-20.3-8.86-19.56-8.86-19.56h-79.7l4.06,18.08h10.33v57.34a1.34,1.34,0,0,1-1.34,1.33h-1.5a1.6,1.6,0,0,1-1.54-1.17l-20.21-73.74a2.5,2.5,0,0,0-2.41-1.84h-99.3a1.94,1.94,0,0,0-1.88,2.41l7.66,30.35a1,1,0,0,1-1.73.72l-19.29-32a3.07,3.07,0,0,0-2.63-1.48H123.66a1.84,1.84,0,0,0-1.75,2.39l8.77,27.89a.79.79,0,0,1-1.42.65L111.19,169.4a3.73,3.73,0,0,0-3.18-1.77H78.73a1.25,1.25,0,0,0-1,2l74.43,93.48a2.38,2.38,0,0,0,1.87.9h16.71a1.59,1.59,0,0,0,1.54-2l-6.12-23.19L188,262.53a4.67,4.67,0,0,0,3.43,1.5h22.16a1.16,1.16,0,0,0,1.1-1.54l-24.54-72a1.69,1.69,0,0,1,1.6-2.23h18.29a2,2,0,0,1,2,1.84L218.21,264h21.3a1.54,1.54,0,0,0,1.55-1.57l-.3-16.11a1.93,1.93,0,0,1,1.92-2h8.67a2.78,2.78,0,0,1,2.59,1.8l6.38,17a1.33,1.33,0,0,0,1.24.85H306a1.17,1.17,0,0,0,1.17-1.09l2.1-33.43a.67.67,0,0,1,.67-.62h6.17a1.63,1.63,0,0,1,1.6,1.29l4.89,22.69c2.21,12.92,15.13,11.07,15.13,11.07h77.36a2.27,2.27,0,0,0,1.91-1L429.32,244a.7.7,0,0,0-.59-1.08H391.15a1.22,1.22,0,0,1-1.15-1.62l3.9-11.15a3,3,0,0,1,2.81-2h44.85a2.62,2.62,0,0,0,2.16-1.13L460,203.82a1,1,0,0,0-.78-1.51l-52-.35a1,1,0,0,1-1-1.41l3.67-9.59a2.4,2.4,0,0,1,2.26-1.55l59.87.35a2.23,2.23,0,0,0,1.87-1L487.73,169A.86.86,0,0,0,487,167.63ZM246.19,217.45h-8.84a1,1,0,0,1-1-1.06l1.33-22.23a1.53,1.53,0,0,1,1.52-1.44h1.13a1.87,1.87,0,0,1,1.82,1.47l5,22.12A.94.94,0,0,1,246.19,217.45ZM326,206.75H312.07a.8.8,0,0,1-.79-.87l1.61-17a1.89,1.89,0,0,1,1.81-1.72c2.26-.08,6.48-.17,10.52.08,5.91.37,8.49,5.53,8.49,12.18S326,206.75,326,206.75Z" transform="translate(-71.89 -21.18)"/></svg>