<svg xmlns="http://www.w3.org/2000/svg" viewBox="0 0 416 242.86"><defs><style>.cls-1{fill:#fff;}</style></defs><title>nrdware-logo_1</title><g id="Capa_2" data-name="Capa 2"><g id="Capa_1-2" data-name="Capa 1"><path class="cls-1" d="M276.6,41.29h23.09A2.54,2.54,0,0,1,302,42.74l23.2,49.17A3.1,3.1,0,0,0,328,93.69h25.34l-28.79-52.4S315.69,29.11,302,29.11H267.35l-8.86-27.3h42.07s30.63,0,48.34,22.5,55.72,69.38,55.72,69.38,12.54,15,9.33,28.1c-2.48,10.17-6.95,12.6-15.52,13.77a20.74,20.74,0,0,1-2.84.19H288.38l-9.56-39.31a2.42,2.42,0,0,1,.86-2.49c2.86-2.23,9.16-9.25,3.91-25.17-4.82-14.58-7.31-22.47-8.31-25.7A1.38,1.38,0,0,1,276.6,41.29Z"/><path class="cls-1" d="M273.32,96.63a.52.52,0,0,0-.42-.43c-2.84-.61-22.08-5.07-25.33-15.62a.57.57,0,0,1,.38-.69c2.68-.77,14.73-5.1,16.07-20.45v-.13c-.28-1.72-6.4-39.83-6.63-41.23a.24.24,0,0,0,0-.08c-.3-.9-5.61-16.19-20.65-16.19C222.59,1.81,160.88.27,150.13,0a2.4,2.4,0,0,0-2.25,1.42l-14,31.4a2.2,2.2,0,0,1-4.09-.19L120.55,5.3a3.51,3.51,0,0,0-3.32-2.39h-16.1a4.12,4.12,0,0,0-3.28,1.64L.11,134.88a.54.54,0,0,0,.44.87h49.9a.57.57,0,0,0,.46-.24L90.53,76.07a.55.55,0,0,1,1,.23l8.23,59a.53.53,0,0,0,.54.47h41.52a.54.54,0,0,0,.53-.42L166.18,30.65a2.44,2.44,0,0,1,2.38-1.91h2.05a2.16,2.16,0,0,1,2.12,2.6L152,135.1a.54.54,0,0,0,.54.65h43.84a.55.55,0,0,0,.55-.5L200.53,86a.55.55,0,0,1,.42-.5c12.6-3.28,17,8.9,17,8.9s14.45,41,35.43,41.38H280a.55.55,0,0,0,.54-.65Zm-45.82-41a1.9,1.9,0,0,1-1.9,1.9H204.86a1.36,1.36,0,0,1-1.35-1.36V31.48a.89.89,0,0,1,.9-.89h19a4.11,4.11,0,0,1,4.11,4.11Z"/><path class="cls-1" d="M415.13,146.45H309.19a1.25,1.25,0,0,0-1.18.83l-26.85,74.45a2.21,2.21,0,0,1-2.1,1.48h-3.23a1.92,1.92,0,0,1-1.85-1.42l-5.16-19.25c11.08-1.47,13.66-10.7,13.66-10.7L288,166c6.28-20.29-8.85-19.56-8.85-19.56H199.45l4.06,18.09h10.33v57.33a1.34,1.34,0,0,1-1.34,1.34H211a1.59,1.59,0,0,1-1.54-1.18l-20.2-73.73a2.51,2.51,0,0,0-2.42-1.85H87.55a1.94,1.94,0,0,0-1.88,2.42l7.66,30.35a1,1,0,0,1-1.73.72l-19.3-32a3.06,3.06,0,0,0-2.62-1.49H51.77A1.84,1.84,0,0,0,50,148.84l8.76,27.9a.79.79,0,0,1-1.42.65L39.29,148.22a3.73,3.73,0,0,0-3.17-1.77H6.84a1.25,1.25,0,0,0-1,2L80.28,242a2.42,2.42,0,0,0,1.88.91H98.87a1.59,1.59,0,0,0,1.53-2l-6.11-23.19,21.86,23.68a4.65,4.65,0,0,0,3.43,1.51h22.16a1.16,1.16,0,0,0,1.1-1.54l-24.54-72a1.68,1.68,0,0,1,1.59-2.23h18.3a2,2,0,0,1,2,1.85l6.12,73.89h21.3a1.54,1.54,0,0,0,1.54-1.58l-.3-16.11a1.93,1.93,0,0,1,1.93-2h8.66a2.77,2.77,0,0,1,2.6,1.79l6.38,17a1.32,1.32,0,0,0,1.24.86h44.48a1.16,1.16,0,0,0,1.16-1.1l2.11-33.42a.67.67,0,0,1,.67-.63h6.17a1.65,1.65,0,0,1,1.6,1.29l4.88,22.69c2.22,12.92,15.13,11.07,15.13,11.07h77.37a2.27,2.27,0,0,0,1.9-1l12.28-18.92a.7.7,0,0,0-.59-1.08H319.25a1.22,1.22,0,0,1-1.15-1.62L322,209a3,3,0,0,1,2.81-2h44.85a2.66,2.66,0,0,0,2.17-1.13l16.24-23.2a1,1,0,0,0-.78-1.51l-52-.35a1,1,0,0,1-1-1.4l3.67-9.6a2.41,2.41,0,0,1,2.26-1.54l59.88.35a2.29,2.29,0,0,0,1.87-1l13.86-19.8A.87.87,0,0,0,415.13,146.45ZM174.3,196.27h-8.84a1,1,0,0,1-1-1.06L165.79,173a1.52,1.52,0,0,1,1.52-1.43h1.12a1.86,1.86,0,0,1,1.83,1.46l5,22.12A.94.94,0,0,1,174.3,196.27Zm79.76-10.7H240.17a.79.79,0,0,1-.78-.87l1.6-17a1.9,1.9,0,0,1,1.82-1.71c2.25-.09,6.47-.18,10.52.07,5.9.37,8.48,5.54,8.48,12.18S254.06,185.57,254.06,185.57Z"/></g></g></svg>