<?xml version="1.0" encoding="utf-8"?>
<!-- Generator: Adobe Illustrator 25.0.1, SVG Export Plug-In . SVG Version: 6.00 Build 0)  -->
<svg version="1.1" id="Capa_1" xmlns="http://www.w3.org/2000/svg" xmlns:xlink="http://www.w3.org/1999/xlink" x="0px" y="0px"
	 viewBox="0 0 300 92.7" style="enable-background:new 0 0 300 92.7;" xml:space="preserve">
<style type="text/css">
	.st0{enable-background:new    ;}
	.st1{fill:#35322F;}
	.st2{fill-rule:evenodd;clip-rule:evenodd;fill:#35322F;}
</style>
<g class="st0">
	<path class="st1" d="M29.5,40.9v-8c0-1.1-0.7-1.8-1.8-1.8h-1.4v-5h1.4c1.1,0,1.8-0.8,1.8-1.8v-8c0-4.7,3.2-6.8,7.6-6.8h3.2v5.2
		h-2.1c-1.8,0-2.5,0.8-2.5,2.5v8c0,2.1-0.9,3-2.1,3.3v0.3c1.3,0.3,2.1,1.2,2.1,3.3V40c0,1.8,0.7,2.6,2.5,2.6h2.1v5.2h-3.2
		C32.8,47.7,29.5,45.6,29.5,40.9z"/>
	<path class="st1" d="M55.8,12.1h7.4L70,32.5h0.3l6.8-20.4h7.3L73.5,41.5h-6.8L55.8,12.1z"/>
	<path class="st1" d="M92.7,12.1h8.5l10.1,29.4h-7.1l-1.8-5.2H91.2l-1.7,5.2h-6.8L92.7,12.1z M100.6,30.3l-3.6-11h-0.4l-3.7,11
		H100.6z"/>
	<path class="st1" d="M114.7,12.1h6.6v29.4h-6.6V12.1z"/>
	<path class="st1" d="M127.1,12.1h7.4l11.3,18.5h0.3V12.1h6.4v29.4H145L133.8,23h-0.3v18.5h-6.4V12.1z"/>
	<path class="st1" d="M158.2,12.1h6.6v29.4h-6.6V12.1z"/>
	<path class="st1" d="M170.7,12.1h6.6v23.5h11.5v5.9h-18.1V12.1z"/>
	<path class="st1" d="M193.2,12.1h6.6v23.5h11.5v5.9h-18.1V12.1z"/>
	<path class="st1" d="M223.4,12.1h8.5L242,41.5H235l-1.8-5.2h-11.3l-1.7,5.2h-6.8L223.4,12.1z M231.4,30.3l-3.6-11h-0.4l-3.7,11
		H231.4z"/>
	<path class="st1" d="M257.5,42.5h2.1c1.8,0,2.5-0.8,2.5-2.6V32c0-2.1,0.9-3,2.1-3.3v-0.3c-1.2-0.3-2.1-1.2-2.1-3.3v-8
		c0-1.7-0.7-2.5-2.5-2.5h-2.1V9.4h3.2c4.3,0,7.6,2.1,7.6,6.8v8c0,1.1,0.7,1.8,1.8,1.8h1.4v5h-1.4c-1.1,0-1.8,0.8-1.8,1.8v8
		c0,4.7-3.3,6.8-7.6,6.8h-3.2V42.5z"/>
</g>
<g class="st0">
	<path class="st1" d="M74,72h6c3,0,5.2,2,5.2,5c0,3-2.2,5.1-5.2,5.1h-3.5v6H74V72z M79.8,79.9c1.7,0,2.9-1.2,2.9-2.9
		c0-1.7-1.1-2.9-2.9-2.9h-3.2v5.8H79.8z"/>
	<path class="st1" d="M89.2,82.6v-5.1c0-3.3,2.5-5.8,6-5.8c3.6,0,6,2.5,6,5.8v5.1c0,3.3-2.5,5.8-6,5.8
		C91.7,88.4,89.2,85.9,89.2,82.6z M98.9,82.4v-4.8c0-1.8-1.2-3.6-3.6-3.6s-3.6,1.8-3.6,3.6v4.8c0,1.8,1.1,3.6,3.6,3.6
		C97.7,86,98.9,84.2,98.9,82.4z"/>
	<path class="st1" d="M105.4,72h5c3.6,0,6.1,2.4,6.1,5.7v4.8c0,3.3-2.5,5.6-6.1,5.6h-5V72z M110.4,85.9c2.5,0,3.6-1.6,3.6-3.4v-4.7
		c0-1.8-1.2-3.6-3.6-3.6h-2.6v11.8H110.4z"/>
	<path class="st1" d="M120.5,82.6v-5.1c0-3.3,2.5-5.8,6-5.8c3.5,0,5.9,2.3,6,5.6h-2.5c-0.1-1.7-1.3-3.2-3.6-3.2
		c-2.4,0-3.6,1.8-3.6,3.6v4.8c0,1.8,1.2,3.6,3.6,3.6c2.3,0,3.4-1.5,3.6-3.2h2.5c-0.1,3.3-2.6,5.6-6,5.6
		C122.9,88.4,120.5,85.9,120.5,82.6z"/>
	<path class="st1" d="M145.6,84.6h-6.8l-1.2,3.5H135l5.6-16.1h3l5.6,16.1h-2.6L145.6,84.6z M144.8,82.3l-2.6-7.7h-0.2l-2.6,7.7
		H144.8z"/>
	<path class="st1" d="M151.9,83.1h2.4c0,1.7,1.4,3,3.6,3c1.9,0,3.2-0.9,3.2-2.3c0-4.3-8.7-1.1-8.7-7.6c0-2.4,2-4.5,5.4-4.5
		c2.8,0,5.5,1.5,5.5,4.8h-2.5c0-1.6-1.1-2.6-3.1-2.6c-2,0-2.9,1.1-2.9,2.2c0,3.9,8.8,1,8.8,7.5c0,2.7-2.1,4.8-5.8,4.8
		C154.4,88.4,151.9,86.2,151.9,83.1z"/>
	<path class="st1" d="M172.2,74.2h-5V72h12.5v2.2h-5v13.9h-2.5V74.2z"/>
	<path class="st1" d="M187.6,86.9c0-0.9,0.7-1.5,1.5-1.5s1.5,0.7,1.5,1.5c0,0.9-0.7,1.5-1.5,1.5S187.6,87.7,187.6,86.9z"/>
	<path class="st1" d="M200,72h9.6v2.2h-7.1V79h6.5v2.2h-6.5v6.9H200V72z"/>
	<path class="st1" d="M214,72h3.2l3.1,13h0.1l3.1-13h3.2v16.1h-2.2v-11h-0.1l-2.6,11h-2.9l-2.6-11h-0.1v11H214V72z"/>
</g>
<path class="st2" d="M272,58.7l-0.2-2.3H162.6l-0.9-1.7c-0.1-0.3-0.7-0.5-1.3-0.5c-0.6,0-1.2,0.2-1.3,0.5l-2.1,4.2l-2.2-7
	c-0.1-0.3-0.7-0.5-1.3-0.5c-0.7,0-1.3,0.2-1.3,0.5l-2,7.4l-2.9-9.4c-0.1-0.3-0.7-0.5-1.3-0.5s-1.2,0.2-1.3,0.5l-2.9,9.4l-2-7.4
	c-0.1-0.3-0.6-0.5-1.3-0.5c-0.7,0-1.2,0.2-1.3,0.5l-2.2,7l-2.1-4.2c-0.1-0.3-0.7-0.5-1.3-0.5c-0.6,0-1.2,0.2-1.3,0.5l-0.9,1.7H27.8
	l0.2,2.3c0,0,101,0,101.3,0c0.5,0,1.2,0,1.6-0.3c0.3-0.2,0.4-0.5,0.6-0.8l2.4,4.8c0.1,0.3,0.7,0.5,1.4,0.5c0.6,0,1.2-0.2,1.3-0.5
	l1.8-5.6l2,7.5c0.1,0.3,0.6,0.5,1.3,0.5c0.7,0,1.2-0.2,1.3-0.5l3-9.7l3,9.7c0.1,0.3,0.7,0.5,1.3,0.5c0.7,0,1.3-0.2,1.3-0.5l2-7.5
	l1.8,5.6c0.1,0.3,0.6,0.5,1.3,0.5c0.7,0,1.2-0.2,1.4-0.5c0,0,2.4-4.8,2.4-4.8c0.2,0.3,0.3,0.7,0.6,0.9c0.5,0.2,1.2,0.2,1.8,0.2
	C162.8,58.7,272,58.7,272,58.7z"/>
</svg>
